<svg width="51" height="50" viewBox="0 0 51 50" fill="none" xmlns="http://www.w3.org/2000/svg">
<path fill-rule="evenodd" clip-rule="evenodd" d="M25.0965 50C38.9036 50 50.0965 38.8071 50.0965 25C50.0965 11.1929 38.9036 0 25.0965 0C11.2894 0 0.0964966 11.1929 0.0964966 25C0.0964966 38.8071 11.2894 50 25.0965 50ZM18.1205 15H33.3225C35.0388 15 36.3465 16.3077 36.3465 18.024V33.226C36.3465 34.9423 35.0388 36.25 33.3225 36.25H18.1205C16.4042 36.25 15.0965 34.9423 15.0965 33.226V18.024C15.0965 16.3077 16.4042 15 18.1205 15ZM32.0965 25.8702C32.0965 29.2212 29.2359 32 25.7215 32C22.2071 32 19.3465 29.2212 19.4282 25.7885C19.4282 25.2163 19.51 24.6442 19.6734 24.0721H17.7936V32.8173C17.7936 33.3077 18.2023 33.6346 18.6109 33.6346H32.8321C33.3225 33.6346 33.6494 33.226 33.6494 32.8173V24.1538H31.8513C32.0148 24.6442 32.0965 25.2981 32.0965 25.8702ZM21.635 25.5433C21.635 27.75 23.4331 29.5481 25.7215 29.5481C28.01 29.5481 29.8081 27.8317 29.8081 25.5433C29.8081 23.3365 28.01 21.5385 25.7215 21.5385C23.4331 21.5385 21.635 23.3365 21.635 25.5433ZM32.6686 21.7019C33.159 21.7019 33.5677 21.2933 33.5677 20.8029V18.5962C33.5677 18.1058 33.159 17.6971 32.6686 17.6971H30.3802C29.8898 17.6971 29.4811 18.1058 29.4811 18.5962V20.8029C29.4811 21.2933 29.8898 21.7019 30.3802 21.7019H32.6686Z" fill="white"/>
</svg>
