<svg width="51" height="50" viewBox="0 0 51 50" fill="none" xmlns="http://www.w3.org/2000/svg">
<path fill-rule="evenodd" clip-rule="evenodd" d="M25.1102 50C38.9173 50 50.1102 38.8071 50.1102 25C50.1102 11.1929 38.9173 0 25.1102 0C11.3031 0 0.110168 11.1929 0.110168 25C0.110168 38.8071 11.3031 50 25.1102 50ZM35.9655 22.9141C35.9842 23.174 36.0016 23.4164 36.0016 23.6414V25.5V27.3586V27.3589C36.0016 27.8437 36.0016 28.4093 35.9208 29.0556C35.9208 29.7828 35.84 30.3485 35.6783 30.9141C35.5167 31.5606 35.1935 32.0455 34.7895 32.4495C34.3854 32.8535 33.8198 33.096 33.2541 33.1768C31.4763 33.4192 28.6481 33.5 24.9309 33.5C21.2137 33.5 18.4662 33.4192 16.6076 33.1768C16.042 33.096 15.4763 32.8535 15.0723 32.4495C14.5874 32.0455 14.345 31.5606 14.1834 30.9141C14.1027 30.349 14.0219 29.7031 13.9412 29.0572L13.941 29.0556C13.941 28.7091 13.9178 28.3859 13.8962 28.0859C13.8776 27.826 13.8602 27.5836 13.8602 27.3586V25.5V23.6414C13.8602 23.1566 13.8602 22.5909 13.941 21.9444C13.941 21.2172 14.0218 20.6515 14.1834 20.0859C14.345 19.4394 14.6682 18.9546 15.0723 18.5505C15.4763 18.1465 16.042 17.904 16.6076 17.8232C18.3854 17.5808 21.2137 17.5 24.9309 17.5C28.6481 17.5 31.3955 17.5808 33.2541 17.8232C33.8198 17.904 34.3854 18.1465 34.7895 18.5505C35.2743 18.9546 35.5167 19.4394 35.6783 20.0859C35.7592 20.6515 35.84 21.298 35.9208 21.9444C35.9208 22.2909 35.944 22.6141 35.9655 22.9141ZM22.8299 30.1061L29.2137 26.1465C29.4561 25.9848 29.6177 25.5808 29.6177 25.3384C29.6177 25.096 29.4561 24.8535 29.2137 24.6919L22.8299 20.7323C22.5874 20.5707 22.2642 20.5707 22.0218 20.7323C21.7794 20.8939 21.6177 21.1364 21.6177 21.4596V29.4596C21.6177 29.7828 21.7794 30.0253 22.0218 30.1869C22.1834 30.2677 22.2642 30.2677 22.4258 30.2677C22.5874 30.2677 22.7491 30.1869 22.8299 30.1061Z" fill="white"/>
</svg>
