<svg width="51" height="50" viewBox="0 0 51 50" fill="none" xmlns="http://www.w3.org/2000/svg">
<path fill-rule="evenodd" clip-rule="evenodd" d="M25.0829 50C38.8901 50 50.0829 38.8071 50.0829 25C50.0829 11.1929 38.8901 0 25.0829 0C11.2758 0 0.0829468 11.1929 0.0829468 25C0.0829468 38.8071 11.2758 50 25.0829 50ZM32.8097 13.75C34.6814 13.75 36.333 15.4015 36.333 17.2733V31.4766C36.333 33.3484 34.6814 35 32.8097 35H29.0661V26.9624H32.5895V23.4391H29.0661V22.0077C29.0661 21.3471 29.3964 21.0168 29.7267 21.0168H32.5895V17.4935H29.7267C27.5247 17.4935 25.763 19.5855 25.763 22.0077V23.4391H23.1205V26.9624H25.763V35H18.6063C16.7345 35 15.083 33.3484 15.083 31.4766V17.2733C15.083 15.4015 16.7345 13.75 18.6063 13.75H32.8097Z" fill="white"/>
</svg>
