<svg width="214" height="33" viewBox="0 0 214 33" fill="none" xmlns="http://www.w3.org/2000/svg">
<path d="M8.71044 27.92C8.71044 28.816 8.79044 29.472 8.95044 29.888C9.14244 30.272 9.47844 30.544 9.95844 30.704C10.4384 30.832 11.1904 30.896 12.2144 30.896H16.2944C18.3104 30.896 19.9744 30.304 21.2864 29.12C22.6304 27.904 23.5264 26.272 23.9744 24.224C23.9744 24.128 24.0544 24.096 24.2144 24.128C24.4064 24.128 24.5024 24.176 24.5024 24.272C24.2144 27.088 24.0704 29.424 24.0704 31.28C24.0704 31.536 24.0064 31.728 23.8784 31.856C23.7824 31.952 23.6064 32 23.3504 32H0.982437C0.918438 32 0.886438 31.904 0.886438 31.712C0.886438 31.52 0.918438 31.424 0.982437 31.424C2.13444 31.424 2.96644 31.344 3.47844 31.184C4.02244 31.024 4.39044 30.72 4.58244 30.272C4.77444 29.792 4.87044 29.072 4.87044 28.112V5.888C4.87044 4.928 4.77444 4.224 4.58244 3.776C4.39044 3.328 4.02244 3.024 3.47844 2.864C2.96644 2.672 2.13444 2.576 0.982437 2.576C0.918438 2.576 0.886438 2.48 0.886438 2.288C0.886438 2.096 0.918438 2 0.982437 2L3.38244 2.048C4.79044 2.112 5.92644 2.144 6.79044 2.144C7.65444 2.144 8.79044 2.112 10.1984 2.048L12.5984 2C12.6624 2 12.6944 2.096 12.6944 2.288C12.6944 2.48 12.6624 2.576 12.5984 2.576C11.4784 2.576 10.6464 2.672 10.1024 2.864C9.55844 3.024 9.19044 3.344 8.99844 3.824C8.80644 4.272 8.71044 4.976 8.71044 5.936V27.92ZM48.3157 24.704C48.3157 24.64 48.3797 24.608 48.5077 24.608C48.6037 24.608 48.6837 24.64 48.7477 24.704C48.8437 24.736 48.8917 24.768 48.8917 24.8C48.5717 27.104 48.4117 29.264 48.4117 31.28C48.4117 31.536 48.3637 31.728 48.2677 31.856C48.1717 31.952 47.9797 32 47.6917 32H27.2437C27.1477 32 27.0997 31.904 27.0997 31.712C27.0997 31.52 27.1477 31.424 27.2437 31.424C28.3957 31.424 29.2277 31.344 29.7397 31.184C30.2517 31.024 30.6037 30.72 30.7957 30.272C30.9877 29.792 31.0837 29.072 31.0837 28.112V5.888C31.0837 4.928 30.9877 4.224 30.7957 3.776C30.6037 3.328 30.2357 3.024 29.6917 2.864C29.1797 2.672 28.3637 2.576 27.2437 2.576C27.1477 2.576 27.0997 2.48 27.0997 2.288C27.0997 2.096 27.1477 2 27.2437 2H46.8277C47.1477 2 47.3077 2.144 47.3077 2.432L47.4037 8.48C47.4037 8.576 47.3077 8.64 47.1157 8.672C46.9557 8.672 46.8597 8.624 46.8277 8.528C46.6037 6.768 45.9797 5.44 44.9557 4.544C43.9317 3.616 42.5877 3.152 40.9237 3.152H38.4757C37.0677 3.152 36.1237 3.36 35.6437 3.776C35.1637 4.16 34.9237 4.928 34.9237 6.08V15.824H40.2037C41.8357 15.824 43.0357 15.552 43.8037 15.008C44.5717 14.432 44.9557 13.552 44.9557 12.368C44.9557 12.304 45.0357 12.272 45.1957 12.272C45.3877 12.272 45.4837 12.304 45.4837 12.368L45.4357 16.4L45.4837 18.56C45.5477 19.584 45.5797 20.384 45.5797 20.96C45.5797 21.024 45.4837 21.056 45.2917 21.056C45.0997 21.056 45.0037 21.024 45.0037 20.96C45.0037 19.584 44.6037 18.576 43.8037 17.936C43.0357 17.264 41.7877 16.928 40.0597 16.928H34.9237V27.92C34.9237 29.072 35.1317 29.856 35.5477 30.272C35.9957 30.688 36.8757 30.896 38.1877 30.896H41.3077C43.1317 30.896 44.6357 30.368 45.8197 29.312C47.0357 28.224 47.8677 26.688 48.3157 24.704ZM60.7473 2.96C58.7633 2.96 57.2113 3.52 56.0913 4.64C54.9713 5.728 54.1393 7.488 53.5953 9.92C53.5633 9.984 53.4513 10.016 53.2593 10.016C53.0993 10.016 53.0193 9.984 53.0193 9.92C53.1473 8.992 53.2913 7.52 53.4513 5.504C53.6113 3.488 53.6913 1.968 53.6913 0.943999C53.6913 0.783999 53.7873 0.704 53.9793 0.704C54.1713 0.704 54.2673 0.783999 54.2673 0.943999C54.2673 1.648 55.1473 2 56.9073 2C59.6273 2.096 62.8433 2.144 66.5553 2.144C68.4433 2.144 70.4433 2.112 72.5553 2.048L75.8193 2C77.0033 2 77.8673 1.92 78.4113 1.76C78.9553 1.6 79.3073 1.28 79.4673 0.799998C79.4993 0.671998 79.5953 0.607998 79.7553 0.607998C79.9473 0.607998 80.0433 0.671998 80.0433 0.799998C79.9473 1.696 79.8353 3.136 79.7073 5.12C79.6113 7.104 79.5633 8.704 79.5633 9.92C79.5633 9.984 79.4673 10.016 79.2753 10.016C79.1153 10.016 79.0353 9.984 79.0353 9.92C78.8113 7.456 78.1713 5.68 77.1153 4.592C76.0593 3.504 74.4913 2.96 72.4113 2.96C71.2273 2.96 70.3793 3.04 69.8673 3.2C69.3553 3.328 69.0033 3.6 68.8113 4.016C68.6193 4.4 68.5233 5.056 68.5233 5.984V28.112C68.5233 29.104 68.6193 29.824 68.8113 30.272C69.0353 30.72 69.4513 31.024 70.0593 31.184C70.6673 31.344 71.6433 31.424 72.9873 31.424C73.0513 31.424 73.0833 31.52 73.0833 31.712C73.0833 31.904 73.0513 32 72.9873 32C71.8673 32 70.9873 31.984 70.3473 31.952L66.5553 31.904L62.8593 31.952C62.2193 31.984 61.3233 32 60.1713 32C60.0753 32 60.0273 31.904 60.0273 31.712C60.0273 31.52 60.0753 31.424 60.1713 31.424C61.4833 31.424 62.4433 31.344 63.0513 31.184C63.6593 31.024 64.0753 30.72 64.2993 30.272C64.5233 29.792 64.6353 29.072 64.6353 28.112V5.888C64.6353 4.992 64.5393 4.352 64.3473 3.968C64.1553 3.552 63.8033 3.28 63.2913 3.152C62.7793 3.024 61.9313 2.96 60.7473 2.96ZM98.6696 32.576C95.6936 32.576 93.0376 31.888 90.7016 30.512C88.3976 29.104 86.6056 27.216 85.3256 24.848C84.0776 22.448 83.4536 19.84 83.4536 17.024C83.4536 13.728 84.2856 10.912 85.9496 8.576C87.6136 6.208 89.7416 4.432 92.3336 3.248C94.9576 2.064 97.6296 1.472 100.35 1.472C103.39 1.472 106.062 2.192 108.366 3.632C110.67 5.04 112.43 6.912 113.646 9.248C114.894 11.584 115.518 14.064 115.518 16.688C115.518 19.6 114.75 22.272 113.214 24.704C111.678 27.136 109.614 29.056 107.022 30.464C104.462 31.872 101.678 32.576 98.6696 32.576ZM100.35 31.52C102.398 31.52 104.238 30.992 105.87 29.936C107.502 28.88 108.782 27.344 109.71 25.328C110.67 23.28 111.15 20.848 111.15 18.032C111.15 15.056 110.622 12.4 109.566 10.064C108.542 7.728 107.054 5.904 105.102 4.592C103.182 3.28 100.942 2.624 98.3816 2.624C95.0536 2.624 92.4616 3.76 90.6056 6.032C88.7496 8.272 87.8216 11.376 87.8216 15.344C87.8216 18.384 88.3496 21.136 89.4056 23.6C90.4616 26.064 91.9336 28 93.8216 29.408C95.7416 30.816 97.9176 31.52 100.35 31.52ZM168.414 31.424C168.478 31.424 168.51 31.52 168.51 31.712C168.51 31.904 168.478 32 168.414 32C167.39 32 166.574 31.984 165.966 31.952L162.558 31.904L159.342 31.952C158.798 31.984 158.046 32 157.086 32C156.99 32 156.942 31.904 156.942 31.712C156.942 31.52 156.99 31.424 157.086 31.424C158.494 31.424 159.438 31.264 159.918 30.944C160.43 30.624 160.686 29.952 160.686 28.928L160.638 28.112L159.726 6.992L149.118 31.664C149.054 31.792 148.926 31.856 148.734 31.856C148.542 31.856 148.414 31.792 148.35 31.664L136.398 7.184L136.014 26.48C135.982 28.176 136.286 29.424 136.926 30.224C137.566 31.024 138.606 31.424 140.046 31.424C140.142 31.424 140.19 31.52 140.19 31.712C140.19 31.904 140.142 32 140.046 32C139.182 32 138.51 31.984 138.03 31.952L135.39 31.904L132.75 31.952C132.302 31.984 131.646 32 130.782 32C130.718 32 130.686 31.904 130.686 31.712C130.686 31.52 130.718 31.424 130.782 31.424C133.438 31.424 134.782 29.776 134.814 26.48L135.246 4.976C134.222 3.376 132.846 2.576 131.118 2.576C131.054 2.576 131.022 2.48 131.022 2.288C131.022 2.096 131.054 2 131.118 2L133.038 2.048C133.422 2.08 133.918 2.096 134.526 2.096C135.23 2.096 135.806 2.08 136.254 2.048C136.702 2.016 137.054 2 137.31 2C137.726 2 138.062 2.144 138.318 2.432C138.574 2.72 138.974 3.408 139.518 4.496L150.174 26.144L160.206 3.2C160.526 2.4 161.006 2 161.646 2C161.838 2 162.094 2.016 162.414 2.048C162.734 2.08 163.15 2.096 163.662 2.096L166.11 2.048C166.494 2.016 167.054 2 167.79 2C167.886 2 167.934 2.096 167.934 2.288C167.934 2.48 167.886 2.576 167.79 2.576C166.222 2.576 165.086 2.832 164.382 3.344C163.71 3.856 163.39 4.752 163.422 6.032L164.478 28.112C164.542 29.104 164.67 29.824 164.862 30.272C165.054 30.72 165.406 31.024 165.918 31.184C166.43 31.344 167.262 31.424 168.414 31.424ZM189.476 29.408C189.604 29.408 189.684 29.488 189.716 29.648C189.78 29.776 189.748 29.872 189.62 29.936L184.676 32.288C184.548 32.352 184.404 32.384 184.244 32.384C183.828 32.384 183.428 32.128 183.044 31.616C182.692 31.072 182.452 30.336 182.324 29.408L179.588 30.896C177.764 31.856 176.244 32.336 175.028 32.336C174.036 32.336 173.252 32.08 172.676 31.568C172.132 31.024 171.86 30.32 171.86 29.456C171.86 28.528 172.196 27.808 172.868 27.296C173.572 26.784 174.852 26.208 176.708 25.568L182.228 23.648V19.76C182.228 17.712 181.972 16.256 181.46 15.392C180.98 14.496 180.276 14.048 179.348 14.048C178.356 14.048 177.572 14.416 176.996 15.152C176.452 15.856 176.116 16.784 175.988 17.936C175.86 19.344 175.156 20.048 173.876 20.048C173.3 20.048 172.852 19.904 172.532 19.616C172.212 19.328 172.052 18.928 172.052 18.416C172.052 17.648 172.548 16.848 173.54 16.016C174.564 15.152 175.78 14.448 177.188 13.904C178.596 13.328 179.86 13.04 180.98 13.04C182.324 13.04 183.412 13.488 184.244 14.384C185.076 15.248 185.492 16.56 185.492 18.32V26.816C185.492 27.872 185.636 28.656 185.924 29.168C186.244 29.68 186.724 29.936 187.364 29.936C187.94 29.936 188.628 29.76 189.428 29.408H189.476ZM182.228 28.688V28.208V24.32L178.004 25.904C177.236 26.192 176.676 26.528 176.324 26.912C176.004 27.264 175.844 27.712 175.844 28.256C175.844 28.928 176.036 29.456 176.42 29.84C176.804 30.224 177.3 30.416 177.908 30.416C178.612 30.416 179.316 30.224 180.02 29.84L182.228 28.688ZM213.664 31.424C213.76 31.424 213.808 31.52 213.808 31.712C213.808 31.904 213.76 32 213.664 32C212.896 32 212.272 31.984 211.792 31.952L209.152 31.904L206.512 31.952C206.032 31.984 205.408 32 204.64 32C204.544 32 204.496 31.904 204.496 31.712C204.496 31.52 204.544 31.424 204.64 31.424C205.792 31.424 206.544 31.216 206.896 30.8C207.28 30.352 207.472 29.456 207.472 28.112V20.624C207.472 18.768 207.136 17.408 206.464 16.544C205.792 15.68 204.72 15.248 203.248 15.248C202.352 15.248 201.424 15.472 200.464 15.92C199.504 16.368 198.64 16.992 197.872 17.792V28.112C197.872 29.456 198.048 30.352 198.4 30.8C198.784 31.216 199.568 31.424 200.752 31.424C200.848 31.424 200.896 31.52 200.896 31.712C200.896 31.904 200.848 32 200.752 32C199.984 32 199.36 31.984 198.88 31.952L196.24 31.904L193.552 31.952C193.104 31.984 192.496 32 191.728 32C191.632 32 191.584 31.904 191.584 31.712C191.584 31.52 191.632 31.424 191.728 31.424C192.88 31.424 193.632 31.216 193.984 30.8C194.368 30.352 194.56 29.456 194.56 28.112V18.752C194.56 17.696 194.432 16.944 194.176 16.496C193.952 16.016 193.552 15.776 192.976 15.776C192.368 15.776 191.52 16 190.432 16.448H190.336C190.24 16.448 190.16 16.368 190.096 16.208C190.064 16.048 190.096 15.952 190.192 15.92L196.144 13.088C196.208 13.056 196.304 13.04 196.432 13.04C196.752 13.04 197.056 13.408 197.344 14.144C197.664 14.848 197.84 15.776 197.872 16.928C200.208 14.208 202.656 12.848 205.216 12.848C206.976 12.848 208.336 13.376 209.296 14.432C210.288 15.456 210.784 16.896 210.784 18.752V28.112C210.784 29.456 210.96 30.352 211.312 30.8C211.696 31.216 212.48 31.424 213.664 31.424Z" fill="black"/>
</svg>
