<svg width="135" height="24" viewBox="0 0 135 24" fill="none" xmlns="http://www.w3.org/2000/svg">
<path d="M5.984 19.94C5.984 20.612 6.044 21.104 6.164 21.416C6.308 21.704 6.56 21.908 6.92 22.028C7.28 22.124 7.844 22.172 8.612 22.172H11.672C13.184 22.172 14.432 21.728 15.416 20.84C16.424 19.928 17.096 18.704 17.432 17.168C17.432 17.096 17.492 17.072 17.612 17.096C17.756 17.096 17.828 17.132 17.828 17.204C17.612 19.316 17.504 21.068 17.504 22.46C17.504 22.652 17.456 22.796 17.36 22.892C17.288 22.964 17.156 23 16.964 23H0.188C0.14 23 0.116 22.928 0.116 22.784C0.116 22.64 0.14 22.568 0.188 22.568C1.052 22.568 1.676 22.508 2.06 22.388C2.468 22.268 2.744 22.04 2.888 21.704C3.032 21.344 3.104 20.804 3.104 20.084V3.416C3.104 2.696 3.032 2.168 2.888 1.832C2.744 1.496 2.468 1.268 2.06 1.148C1.676 1.004 1.052 0.931999 0.188 0.931999C0.14 0.931999 0.116 0.859999 0.116 0.715999C0.116 0.572 0.14 0.5 0.188 0.5L1.988 0.536C3.044 0.583999 3.896 0.607999 4.544 0.607999C5.192 0.607999 6.044 0.583999 7.1 0.536L8.9 0.5C8.948 0.5 8.972 0.572 8.972 0.715999C8.972 0.859999 8.948 0.931999 8.9 0.931999C8.06 0.931999 7.436 1.004 7.028 1.148C6.62 1.268 6.344 1.508 6.2 1.868C6.056 2.204 5.984 2.732 5.984 3.452V19.94ZM31.6919 20.876C31.7639 20.876 31.8239 20.924 31.8719 21.02C31.9439 21.092 31.9559 21.164 31.9079 21.236C31.0679 22.004 30.2039 22.568 29.3159 22.928C28.4519 23.264 27.5159 23.432 26.5079 23.432C25.0679 23.432 23.8199 23.12 22.7639 22.496C21.7319 21.848 20.9399 20.996 20.3879 19.94C19.8599 18.884 19.5959 17.744 19.5959 16.52C19.5959 15.104 19.9319 13.808 20.6039 12.632C21.2999 11.432 22.2479 10.496 23.4479 9.824C24.6719 9.128 26.0159 8.78 27.4799 8.78C28.8239 8.78 29.8679 9.104 30.6119 9.752C31.3559 10.376 31.7279 11.24 31.7279 12.344C31.7279 12.944 31.5959 13.244 31.3319 13.244H29.6039L22.5119 13.316C22.4159 13.796 22.3679 14.384 22.3679 15.08C22.3679 17.144 22.8599 18.812 23.8439 20.084C24.8519 21.356 26.2319 21.992 27.9839 21.992C29.3759 21.992 30.5999 21.62 31.6559 20.876H31.6919ZM26.2199 9.5C25.3319 9.5 24.5759 9.788 23.9519 10.364C23.3279 10.916 22.8839 11.708 22.6199 12.74L28.8119 12.596C28.7879 11.636 28.5479 10.88 28.0919 10.328C27.6359 9.776 27.0119 9.5 26.2199 9.5ZM44.4767 20.912C44.5727 20.912 44.6447 20.972 44.6927 21.092C44.7407 21.188 44.7287 21.26 44.6567 21.308C43.7687 22.052 42.9527 22.592 42.2087 22.928C41.4647 23.264 40.6847 23.432 39.8687 23.432C38.8607 23.432 38.0087 23.204 37.3127 22.748C36.6407 22.268 36.3047 21.476 36.3047 20.372V12.056C36.3047 11.216 36.1847 10.676 35.9447 10.436C35.7287 10.196 35.2247 10.076 34.4327 10.076C34.3607 10.076 34.3247 9.98 34.3247 9.788C34.3247 9.62 34.3607 9.536 34.4327 9.536C35.4887 9.512 36.3407 9.26 36.9887 8.78C37.6367 8.276 38.0567 7.592 38.2487 6.728C38.2727 6.656 38.3687 6.62 38.5367 6.62C38.7047 6.62 38.7887 6.656 38.7887 6.728V9.5C39.9647 9.476 41.5967 9.356 43.6847 9.14C43.7567 9.14 43.8167 9.224 43.8647 9.392C43.9127 9.56 43.9367 9.752 43.9367 9.968C43.9367 10.184 43.9007 10.4 43.8287 10.616C43.7567 10.808 43.6727 10.892 43.5767 10.868C42.0647 10.556 40.4687 10.376 38.7887 10.328V19.148C38.7887 20.108 39.0287 20.828 39.5087 21.308C39.9887 21.764 40.6727 21.992 41.5607 21.992C42.6167 21.992 43.5647 21.644 44.4047 20.948L44.4767 20.912ZM53.6888 23.468C52.2728 23.468 51.0248 23.132 49.9448 22.46C48.8648 21.764 48.0248 20.84 47.4248 19.688C46.8488 18.512 46.5608 17.24 46.5608 15.872C46.5608 14.312 46.9448 12.992 47.7128 11.912C48.4808 10.808 49.4648 9.992 50.6648 9.464C51.8648 8.912 53.0888 8.636 54.3368 8.636C55.7528 8.636 57.0008 8.984 58.0808 9.68C59.1608 10.376 59.9888 11.3 60.5648 12.452C61.1408 13.58 61.4288 14.78 61.4288 16.052C61.4288 17.516 61.0688 18.812 60.3488 19.94C59.6528 21.068 58.7168 21.944 57.5408 22.568C56.3648 23.168 55.0808 23.468 53.6888 23.468ZM54.7328 22.784C55.9328 22.784 56.8568 22.316 57.5048 21.38C58.1528 20.444 58.4768 19.04 58.4768 17.168C58.4768 15.608 58.2368 14.24 57.7568 13.064C57.3008 11.864 56.6648 10.952 55.8488 10.328C55.0328 9.68 54.1208 9.356 53.1128 9.356C51.9368 9.356 51.0248 9.812 50.3768 10.724C49.7528 11.612 49.4408 12.932 49.4408 14.684C49.4408 16.196 49.6688 17.576 50.1248 18.824C50.5808 20.048 51.2048 21.02 51.9968 21.74C52.8128 22.436 53.7248 22.784 54.7328 22.784ZM100.589 22.568C100.637 22.568 100.661 22.64 100.661 22.784C100.661 22.928 100.637 23 100.589 23C99.8215 23 99.2095 22.988 98.7535 22.964L96.1975 22.928L93.7855 22.964C93.3775 22.988 92.8135 23 92.0935 23C92.0215 23 91.9855 22.928 91.9855 22.784C91.9855 22.64 92.0215 22.568 92.0935 22.568C93.1495 22.568 93.8575 22.448 94.2175 22.208C94.6015 21.968 94.7935 21.464 94.7935 20.696L94.7575 20.084L94.0735 4.244L86.1175 22.748C86.0695 22.844 85.9735 22.892 85.8295 22.892C85.6855 22.892 85.5895 22.844 85.5415 22.748L76.5775 4.388L76.2895 18.86C76.2655 20.132 76.4935 21.068 76.9735 21.668C77.4535 22.268 78.2335 22.568 79.3135 22.568C79.3855 22.568 79.4215 22.64 79.4215 22.784C79.4215 22.928 79.3855 23 79.3135 23C78.6655 23 78.1615 22.988 77.8015 22.964L75.8215 22.928L73.8415 22.964C73.5055 22.988 73.0135 23 72.3655 23C72.3175 23 72.2935 22.928 72.2935 22.784C72.2935 22.64 72.3175 22.568 72.3655 22.568C74.3575 22.568 75.3655 21.332 75.3895 18.86L75.7135 2.732C74.9455 1.532 73.9135 0.931999 72.6175 0.931999C72.5695 0.931999 72.5455 0.859999 72.5455 0.715999C72.5455 0.572 72.5695 0.5 72.6175 0.5L74.0575 0.536C74.3455 0.559999 74.7175 0.571999 75.1735 0.571999C75.7015 0.571999 76.1335 0.559999 76.4695 0.536C76.8055 0.512 77.0695 0.5 77.2615 0.5C77.5735 0.5 77.8255 0.607999 78.0175 0.823998C78.2095 1.04 78.5095 1.556 78.9175 2.372L86.9095 18.608L94.4335 1.4C94.6735 0.8 95.0335 0.5 95.5135 0.5C95.6575 0.5 95.8495 0.512 96.0895 0.536C96.3295 0.559999 96.6415 0.571999 97.0255 0.571999L98.8615 0.536C99.1495 0.512 99.5695 0.5 100.121 0.5C100.193 0.5 100.229 0.572 100.229 0.715999C100.229 0.859999 100.193 0.931999 100.121 0.931999C98.9455 0.931999 98.0935 1.124 97.5655 1.508C97.0615 1.892 96.8215 2.564 96.8455 3.524L97.6375 20.084C97.6855 20.828 97.7815 21.368 97.9255 21.704C98.0695 22.04 98.3335 22.268 98.7175 22.388C99.1015 22.508 99.7255 22.568 100.589 22.568ZM116.386 21.056C116.482 21.056 116.542 21.116 116.566 21.236C116.614 21.332 116.59 21.404 116.494 21.452L112.786 23.216C112.69 23.264 112.582 23.288 112.462 23.288C112.15 23.288 111.85 23.096 111.562 22.712C111.298 22.304 111.118 21.752 111.022 21.056L108.97 22.172C107.602 22.892 106.462 23.252 105.55 23.252C104.806 23.252 104.218 23.06 103.786 22.676C103.378 22.268 103.174 21.74 103.174 21.092C103.174 20.396 103.426 19.856 103.93 19.472C104.458 19.088 105.418 18.656 106.81 18.176L110.95 16.736V13.82C110.95 12.284 110.758 11.192 110.374 10.544C110.014 9.872 109.486 9.536 108.79 9.536C108.046 9.536 107.458 9.812 107.026 10.364C106.618 10.892 106.366 11.588 106.27 12.452C106.174 13.508 105.646 14.036 104.686 14.036C104.254 14.036 103.918 13.928 103.678 13.712C103.438 13.496 103.318 13.196 103.318 12.812C103.318 12.236 103.69 11.636 104.434 11.012C105.202 10.364 106.114 9.836 107.17 9.428C108.226 8.996 109.174 8.78 110.014 8.78C111.022 8.78 111.838 9.116 112.462 9.788C113.086 10.436 113.398 11.42 113.398 12.74V19.112C113.398 19.904 113.506 20.492 113.722 20.876C113.962 21.26 114.322 21.452 114.802 21.452C115.234 21.452 115.75 21.32 116.35 21.056H116.386ZM110.95 20.516V20.156V17.24L107.782 18.428C107.206 18.644 106.786 18.896 106.522 19.184C106.282 19.448 106.162 19.784 106.162 20.192C106.162 20.696 106.306 21.092 106.594 21.38C106.882 21.668 107.254 21.812 107.71 21.812C108.238 21.812 108.766 21.668 109.294 21.38L110.95 20.516ZM134.527 22.568C134.599 22.568 134.635 22.64 134.635 22.784C134.635 22.928 134.599 23 134.527 23C133.951 23 133.483 22.988 133.123 22.964L131.143 22.928L129.163 22.964C128.803 22.988 128.335 23 127.759 23C127.687 23 127.651 22.928 127.651 22.784C127.651 22.64 127.687 22.568 127.759 22.568C128.623 22.568 129.187 22.412 129.451 22.1C129.739 21.764 129.883 21.092 129.883 20.084V14.468C129.883 13.076 129.631 12.056 129.127 11.408C128.623 10.76 127.819 10.436 126.715 10.436C126.043 10.436 125.347 10.604 124.627 10.94C123.907 11.276 123.259 11.744 122.683 12.344V20.084C122.683 21.092 122.815 21.764 123.079 22.1C123.367 22.412 123.955 22.568 124.843 22.568C124.915 22.568 124.951 22.64 124.951 22.784C124.951 22.928 124.915 23 124.843 23C124.267 23 123.799 22.988 123.439 22.964L121.459 22.928L119.443 22.964C119.107 22.988 118.651 23 118.075 23C118.003 23 117.967 22.928 117.967 22.784C117.967 22.64 118.003 22.568 118.075 22.568C118.939 22.568 119.503 22.412 119.767 22.1C120.055 21.764 120.199 21.092 120.199 20.084V13.064C120.199 12.272 120.103 11.708 119.911 11.372C119.743 11.012 119.443 10.832 119.011 10.832C118.555 10.832 117.919 11 117.103 11.336H117.031C116.959 11.336 116.899 11.276 116.851 11.156C116.827 11.036 116.851 10.964 116.923 10.94L121.387 8.816C121.435 8.792 121.507 8.78 121.603 8.78C121.843 8.78 122.071 9.056 122.287 9.608C122.527 10.136 122.659 10.832 122.683 11.696C124.435 9.656 126.271 8.636 128.191 8.636C129.511 8.636 130.531 9.032 131.251 9.824C131.995 10.592 132.367 11.672 132.367 13.064V20.084C132.367 21.092 132.499 21.764 132.763 22.1C133.051 22.412 133.639 22.568 134.527 22.568Z" fill="black"/>
</svg>
